<svg width="283" height="64" viewBox="0 0 283 64" fill="none" xmlns="http://www.w3.org/2000/svg">
<path fill-rule="evenodd" clip-rule="evenodd" d="M217.433 26.3229C219.035 26.3229 220.345 25.7535 221.37 24.6149C222.394 23.4763 222.907 22.0286 222.907 20.2637C222.907 18.4988 222.427 17.0593 221.459 15.9369C220.499 14.8145 219.198 14.2533 217.563 14.2533C216.807 14.2533 216.132 14.3835 215.53 14.6437C214.928 14.904 214.497 15.2293 214.237 15.6197V9.26776H210.797V26.0545H214.196V24.7532C214.473 25.2168 214.896 25.5909 215.465 25.8755C216.042 26.1765 216.693 26.3229 217.433 26.3229ZM121.707 26.0707L122.886 22.7362H129.222L130.401 26.0707H134.378L128.278 9.63375H124.049L117.876 26.0707H121.707ZM128.059 19.3935H124.082L126.09 13.7166L128.059 19.3935ZM145.097 25.233C144.138 26.0219 142.926 26.4123 141.478 26.4123C139.754 26.4123 138.29 25.8349 137.103 24.6881C135.907 23.5332 135.313 22.0774 135.313 20.3206C135.313 18.5395 135.891 17.0755 137.062 15.9288C138.225 14.7739 139.665 14.2045 141.372 14.2045C142.869 14.2045 144.089 14.5949 145.049 15.3676C146 16.1402 146.618 17.0918 146.895 18.2223L143.755 19.1739C143.617 18.6777 143.357 18.2711 142.967 17.9458C142.584 17.6204 142.072 17.4578 141.438 17.4578C140.681 17.4578 140.055 17.7099 139.551 18.2223C139.055 18.7347 138.802 19.4341 138.802 20.3288C138.802 21.2071 139.063 21.9066 139.575 22.419C140.087 22.9314 140.722 23.1835 141.478 23.1835C142.113 23.1835 142.633 23.0208 143.04 22.6874C143.446 22.3539 143.723 21.9472 143.861 21.4674L146.96 22.419C146.683 23.5007 146.065 24.4441 145.097 25.233ZM154.442 26.4123C155.89 26.4123 157.094 26.0219 158.062 25.233C159.021 24.4441 159.648 23.5007 159.924 22.4027L156.825 21.4511C156.687 21.931 156.411 22.3376 156.004 22.6711C155.597 23.0045 155.077 23.1672 154.442 23.1672C153.686 23.1672 153.052 22.9151 152.539 22.4027C152.027 21.8903 151.767 21.199 151.767 20.3125C151.767 19.4179 152.019 18.7103 152.515 18.206C153.011 17.6936 153.645 17.4415 154.394 17.4415C155.028 17.4415 155.532 17.6042 155.923 17.9295C156.305 18.2548 156.565 18.6615 156.703 19.1576L159.843 18.206C159.566 17.0755 158.948 16.124 157.997 15.3513C157.045 14.5787 155.817 14.1883 154.32 14.1883C152.612 14.1883 151.173 14.7657 150.01 15.9125C148.847 17.0674 148.261 18.5314 148.261 20.3044C148.261 22.0692 148.855 23.5251 150.05 24.6718C151.262 25.843 152.718 26.4123 154.442 26.4123ZM170.692 25.3875C169.765 26.0789 168.61 26.4204 167.228 26.4204C165.56 26.4204 164.153 25.8674 162.99 24.7532C161.827 23.6389 161.242 22.1506 161.242 20.28C161.242 18.4907 161.811 17.0267 162.941 15.8962C164.072 14.7657 165.414 14.2045 166.975 14.2045C168.765 14.2045 170.172 14.7251 171.188 15.7661C172.213 16.8071 172.726 18.2548 172.726 20.1092C172.726 20.6948 172.701 21.0607 172.652 21.199H164.658C164.69 21.8334 164.958 22.362 165.463 22.785C165.967 23.2079 166.569 23.4193 167.268 23.4193C168.456 23.4193 169.228 22.9151 169.578 21.9147L172.514 22.7524C172.221 23.8179 171.611 24.6962 170.692 25.3875ZM169.326 18.9299H164.731C164.78 18.4338 164.999 17.9864 165.398 17.5879C165.796 17.1894 166.333 16.9861 167.016 16.9861C167.772 16.9861 168.334 17.1813 168.716 17.5635C169.09 17.9458 169.293 18.4012 169.326 18.9299ZM178.5 25.1598V30.4707H174.987V14.5461H178.386V15.7254C178.646 15.3269 179.086 14.9772 179.696 14.6925C180.306 14.4079 180.997 14.2615 181.761 14.2615C183.396 14.2615 184.689 14.8227 185.657 15.945C186.617 17.0674 187.105 18.507 187.105 20.2718C187.105 22.0367 186.592 23.4844 185.568 24.6149C184.543 25.7535 183.233 26.3229 181.631 26.3229C180.175 26.3229 179.134 25.9325 178.5 25.1598ZM181.046 23.1672C180.322 23.1672 179.712 22.9151 179.208 22.4108C178.703 21.9066 178.459 21.199 178.459 20.2881C178.459 19.3772 178.711 18.6696 179.208 18.1816C179.712 17.6855 180.322 17.4415 181.046 17.4415C181.786 17.4415 182.404 17.6855 182.908 18.1816C183.412 18.6777 183.656 19.3772 183.656 20.2881C183.656 21.199 183.404 21.9147 182.892 22.419C182.396 22.9232 181.786 23.1672 181.046 23.1672ZM195.758 25.9487C195.327 26.1683 194.717 26.2741 193.928 26.2741C192.741 26.2741 191.806 25.9406 191.123 25.2737C190.439 24.6068 190.098 23.704 190.098 22.5572V17.6286H188.065V14.5461H188.642C189.228 14.5461 189.667 14.3753 189.968 14.0256C190.269 13.6759 190.415 13.2286 190.415 12.6674V11.1872H193.554V14.5461H195.799V17.6286H193.554V21.9391C193.554 22.7443 193.977 23.1428 194.823 23.1428C195.1 23.1428 195.409 23.1021 195.75 23.0289V25.9487H195.758ZM201.468 26.396C202.964 26.396 204.038 25.8511 204.705 24.7694C204.705 25.3225 204.746 25.7617 204.819 26.0707H207.982C207.893 25.6071 207.844 25.0134 207.844 24.2896V18.6533C207.844 17.3521 207.429 16.2866 206.608 15.457C205.787 14.6193 204.502 14.2045 202.761 14.2045C201.224 14.2045 200.012 14.6031 199.142 15.4001C198.272 16.1972 197.8 17.0755 197.719 18.0352L200.768 18.6615C200.801 18.1979 200.988 17.7994 201.338 17.4659C201.687 17.1325 202.151 16.9698 202.737 16.9698C203.257 16.9698 203.672 17.0918 203.973 17.3277C204.274 17.5635 204.42 17.8644 204.42 18.2223C204.42 18.6696 204.144 18.9299 203.591 19.0112L200.89 19.426C199.89 19.5805 199.069 19.9546 198.442 20.5484C197.808 21.1421 197.491 21.931 197.491 22.8988C197.491 23.8585 197.849 24.68 198.564 25.3713C199.288 26.0463 200.256 26.396 201.468 26.396ZM201.297 23.4925C201.517 23.7203 201.866 23.8423 202.322 23.8423C202.924 23.8423 203.42 23.6633 203.826 23.3055C204.233 22.9476 204.428 22.362 204.428 21.5406V21.0282L202.257 21.3779C201.395 21.5162 200.964 21.9391 200.964 22.6548C200.964 22.9883 201.069 23.2648 201.297 23.4925ZM214.961 22.419C215.465 22.9232 216.083 23.1753 216.807 23.1753C217.531 23.1753 218.141 22.9232 218.645 22.419C219.141 21.9147 219.393 21.2071 219.393 20.2962C219.393 19.3691 219.149 18.6615 218.653 18.1735C218.157 17.6855 217.547 17.4415 216.807 17.4415C216.067 17.4415 215.449 17.6855 214.944 18.1735C214.44 18.6615 214.196 19.3691 214.196 20.2962C214.204 21.2071 214.456 21.9147 214.961 22.419ZM228.689 26.0707V9.28403H225.176V26.0707H228.689ZM240.401 25.3875C239.474 26.0789 238.319 26.4204 236.936 26.4204C235.269 26.4204 233.862 25.8674 232.699 24.7532C231.536 23.6389 230.958 22.1506 230.958 20.28C230.958 18.4907 231.528 17.0267 232.658 15.8962C233.789 14.7657 235.139 14.2045 236.692 14.2045C238.482 14.2045 239.88 14.7251 240.905 15.7661C241.93 16.8071 242.442 18.2548 242.442 20.1092C242.442 20.6948 242.418 21.0607 242.377 21.199H234.382C234.415 21.8334 234.683 22.362 235.188 22.785C235.692 23.2079 236.294 23.4193 236.993 23.4193C238.181 23.4193 238.953 22.9151 239.303 21.9147L242.239 22.7524C241.938 23.8179 241.328 24.6962 240.401 25.3875ZM239.043 18.9299H234.448C234.496 18.4338 234.716 17.9864 235.114 17.5879C235.513 17.1894 236.05 16.9861 236.733 16.9861C237.489 16.9861 238.05 17.1813 238.433 17.5635C238.807 17.9458 239.01 18.4012 239.043 18.9299ZM247.542 21.4755L245.809 26.0626H243.386L249.9 9.62562H252.511L259.026 26.0626H256.578L254.797 21.4755H247.542ZM253.991 19.3691H248.355L251.153 11.9923L253.991 19.3691ZM267.565 25.8023C266.972 26.1846 266.264 26.3716 265.451 26.3716C263.865 26.3716 262.588 25.8105 261.628 24.6881C260.669 23.5657 260.181 22.1587 260.181 20.4589C260.181 18.8323 260.677 17.4578 261.661 16.3191C262.645 15.1805 263.914 14.6112 265.451 14.6112C266.362 14.6112 267.102 14.7901 267.671 15.1561C268.241 15.5221 268.631 15.9613 268.851 16.4899V9.27589H270.998V23.9968C270.998 24.7532 271.038 25.4445 271.112 26.0626H269.005C268.924 25.6315 268.891 25.1273 268.891 24.558V24.379C268.607 24.9484 268.159 25.4201 267.565 25.8023ZM265.662 24.4441C264.646 24.4441 263.849 24.07 263.271 23.3299C262.694 22.5898 262.401 21.6301 262.401 20.4589C262.401 19.2959 262.702 18.3606 263.304 17.6286C263.906 16.9047 264.695 16.5387 265.687 16.5387C266.679 16.5387 267.452 16.8966 268.021 17.6042C268.59 18.3118 268.875 19.2471 268.875 20.4101C268.875 21.5813 268.582 22.5491 267.997 23.3055C267.411 24.07 266.63 24.4441 265.662 24.4441ZM281.18 25.3469C280.465 26.0545 279.464 26.4123 278.187 26.4123C276.821 26.4123 275.747 26.0707 274.975 25.3794C274.202 24.6881 273.763 23.9561 273.657 23.1672L275.625 22.4678C275.699 23.0696 275.967 23.5657 276.414 23.9643C276.862 24.3546 277.463 24.558 278.22 24.558C278.805 24.558 279.269 24.4116 279.602 24.1269C279.944 23.8423 280.115 23.4925 280.115 23.0696C280.115 22.3295 279.635 21.8497 278.683 21.6301L276.788 21.2153C275.926 21.0282 275.251 20.6622 274.755 20.101C274.259 19.5399 274.015 18.8729 274.015 18.084C274.015 17.1243 274.405 16.3029 275.178 15.6034C275.959 14.904 276.886 14.5624 277.96 14.5624C278.667 14.5624 279.302 14.6681 279.855 14.8715C280.408 15.0829 280.839 15.3513 281.148 15.6929C281.457 16.0345 281.685 16.3517 281.839 16.6445C281.994 16.9373 282.107 17.2382 282.189 17.5472L280.269 18.263C280.237 18.0759 280.188 17.897 280.107 17.718C280.025 17.5391 279.912 17.3439 279.749 17.1243C279.586 16.9047 279.35 16.7339 279.041 16.6038C278.732 16.4737 278.374 16.4086 277.951 16.4086C277.415 16.4086 276.967 16.555 276.626 16.8478C276.276 17.1406 276.105 17.4903 276.105 17.8888C276.105 18.5964 276.528 19.0519 277.374 19.2308L279.18 19.6212C280.164 19.8408 280.92 20.2393 281.457 20.8167C281.985 21.3942 282.254 22.1018 282.254 22.9395C282.254 23.8423 281.896 24.6393 281.18 25.3469Z" fill="white"/>
<path fill-rule="evenodd" clip-rule="evenodd" d="M158.672 55.8785V49.3151C158.704 48.453 158.94 47.7454 159.387 47.1923C159.835 46.6474 160.461 46.3709 161.258 46.3709C162.982 46.3709 163.844 47.3062 163.844 49.1768V55.8785H166.016V48.8108C166.016 47.5095 165.674 46.4522 164.991 45.6308C164.308 44.8093 163.324 44.4027 162.047 44.4027C160.534 44.4027 159.412 44.9476 158.672 46.0293V39.0999H156.5V55.8866H158.672V55.8785ZM129.677 55.8785V53.772H121.983V48.7376H128.962V46.6068H121.983V41.5561H129.677V39.4496H119.722V55.8866H129.677V55.8785ZM133.882 55.8785L136.704 51.7713L139.567 55.8785H142.178C141.966 55.5857 141.283 54.6341 140.145 53.04L139.892 52.6822C138.908 51.2995 138.307 50.47 138.087 50.2016L142.04 44.728H139.478L136.794 48.6482L134.069 44.728H131.434L135.427 50.2016L131.288 55.8785H133.882ZM152.214 55.179C151.36 55.8785 150.27 56.2201 148.945 56.2201C147.326 56.2201 145.984 55.6589 144.927 54.5284C143.861 53.3979 143.333 51.9827 143.333 50.2829C143.333 48.5506 143.861 47.1354 144.927 46.0293C145.992 44.9232 147.326 44.3702 148.92 44.3702C150.278 44.3702 151.376 44.7199 152.214 45.4112C153.052 46.1106 153.605 46.9402 153.865 47.9162L151.905 48.7539C151.734 48.1032 151.409 47.5502 150.937 47.0866C150.457 46.623 149.79 46.3872 148.928 46.3872C147.985 46.3872 147.188 46.7288 146.537 47.4038C145.887 48.087 145.553 49.0386 145.553 50.2748C145.553 51.4947 145.878 52.4544 146.537 53.1458C147.196 53.8452 147.993 54.1868 148.953 54.1868C149.88 54.1868 150.579 53.9591 151.067 53.4874C151.555 53.0238 151.881 52.487 152.051 51.8851L153.971 52.7228C153.654 53.6744 153.068 54.4877 152.214 55.179ZM174.743 55.667C174.149 56.0411 173.409 56.2201 172.514 56.2201C171.416 56.2201 170.53 55.8947 169.83 55.236C169.131 54.5772 168.789 53.7964 168.789 52.8855C168.789 51.9258 169.098 51.1613 169.717 50.5757C170.335 49.9901 171.148 49.6404 172.165 49.494L175.166 49.0548C175.735 48.9735 176.02 48.697 176.02 48.2171C176.02 47.6315 175.816 47.1517 175.418 46.7775C175.019 46.4034 174.417 46.2245 173.612 46.2245C172.872 46.2245 172.287 46.4278 171.856 46.8426C171.424 47.2493 171.172 47.7942 171.091 48.4774L169.009 47.9894C169.115 46.9239 169.603 46.0537 170.465 45.3787C171.327 44.7036 172.36 44.3702 173.563 44.3702C175.133 44.3702 176.296 44.7524 177.053 45.5169C177.809 46.2814 178.183 47.2574 178.183 48.453V54.0404C178.183 54.7073 178.232 55.3173 178.321 55.8703H176.199C176.125 55.4068 176.085 54.9025 176.085 54.3657C175.792 54.8618 175.336 55.301 174.743 55.667ZM172.815 54.3901C172.278 54.3901 171.839 54.2275 171.506 53.9021C171.172 53.5768 171.01 53.2027 171.01 52.7635C171.01 52.2837 171.156 51.9095 171.449 51.6249C171.742 51.3483 172.132 51.1694 172.628 51.0881L176.028 50.5757V51.0881C176.028 52.2349 175.735 53.0644 175.149 53.5931C174.564 54.1299 173.783 54.3901 172.815 54.3901ZM183.746 49.4289V55.8703H181.575V44.728H183.697V46.3302C184.437 45.0452 185.576 44.4027 187.121 44.4027C188.398 44.4027 189.382 44.8093 190.066 45.6308C190.749 46.4522 191.09 47.5095 191.09 48.8108V55.8785H188.919V49.1768C188.919 47.3062 188.057 46.3709 186.332 46.3709C185.519 46.3709 184.877 46.6637 184.429 47.2411C183.974 47.8186 183.746 48.5506 183.746 49.4289ZM198.882 60.6282C199.882 60.6282 200.761 60.4737 201.509 60.1646C202.257 59.8556 202.834 59.4326 203.257 58.8877C203.672 58.3428 203.973 57.7572 204.168 57.1147C204.363 56.4722 204.453 55.7809 204.453 55.0408V44.728H202.306V46.2814C201.72 45.1103 200.582 44.5166 198.882 44.5166C197.385 44.5166 196.165 45.0371 195.206 46.0781C194.254 47.1191 193.774 48.4123 193.774 49.9413C193.774 51.5191 194.254 52.8123 195.222 53.8208C196.182 54.8293 197.402 55.3417 198.882 55.3417C199.687 55.3417 200.378 55.1709 200.972 54.8293C201.566 54.4877 201.997 54.0485 202.281 53.5117V55.114C202.281 57.5214 201.151 58.7332 198.882 58.7332C198.052 58.7332 197.353 58.4729 196.8 57.9606C196.247 57.44 195.929 56.7894 195.848 56.0005L193.75 56.4885C193.888 57.6922 194.433 58.6844 195.393 59.4652C196.344 60.2378 197.507 60.6282 198.882 60.6282ZM196.857 52.552C197.434 53.1946 198.215 53.5117 199.199 53.5117C200.134 53.5117 200.899 53.1864 201.484 52.5276C202.07 51.8689 202.363 51.0068 202.363 49.9413C202.363 48.8759 202.07 48.0138 201.484 47.355C200.899 46.6962 200.134 46.3709 199.199 46.3709C198.239 46.3709 197.467 46.6962 196.873 47.3469C196.279 47.9975 195.986 48.8596 195.986 49.9413C195.995 51.0393 196.279 51.9095 196.857 52.552ZM212.61 56.2282C213.855 56.2282 214.92 55.9029 215.799 55.2441C216.677 54.5853 217.279 53.7395 217.604 52.7066L215.734 52.0559C215.237 53.5524 214.205 54.3088 212.61 54.3088C211.675 54.3088 210.878 53.9916 210.244 53.3572C209.601 52.7228 209.276 51.9095 209.26 50.9254H217.62C217.653 50.7384 217.669 50.5106 217.669 50.226C217.669 48.4448 217.198 47.0297 216.262 45.9724C215.327 44.9151 214.009 44.3864 212.334 44.3864C210.886 44.3864 209.642 44.9395 208.593 46.0537C207.544 47.1679 207.023 48.575 207.023 50.2748C207.023 52.0966 207.568 53.5443 208.65 54.626C209.731 55.6914 211.049 56.2282 212.61 56.2282ZM209.325 49.1524H215.4C215.368 48.3147 215.091 47.6315 214.57 47.1029C214.05 46.5661 213.31 46.3058 212.35 46.3058C211.488 46.3058 210.78 46.5905 210.227 47.1517C209.674 47.7129 209.373 48.3798 209.325 49.1524Z" fill="white"/>
<path fill-rule="evenodd" clip-rule="evenodd" d="M55.9104 0.87439H36.8464L73.242 63.4748H92.306L55.9104 0.87439Z" fill="#E3E3E3"/>
<path fill-rule="evenodd" clip-rule="evenodd" d="M21.9059 32.3413L19.4497 34.155L36.5129 63.4992H55.5769L37.1961 31.8859L21.9059 32.3413Z" fill="#005FB8"/>
<path fill-rule="evenodd" clip-rule="evenodd" d="M36.8463 0.87439H55.9102L19.5146 63.4748H0.450684L36.8463 0.87439Z" fill="white"/>
<path fill-rule="evenodd" clip-rule="evenodd" d="M72.8922 0.87439H91.9561L55.5605 63.4748H36.4966L72.8922 0.87439Z" fill="#006ED6"/>
</svg>
