<?xml version="1.0" encoding="UTF-8"?>
<svg xmlns="http://www.w3.org/2000/svg" xmlns:xlink="http://www.w3.org/1999/xlink" width="1918pt" height="1079pt" viewBox="0 0 1918 1079" version="1.1">
<g id="surface1">
<path style=" stroke:none;fill-rule:evenodd;fill:rgb(100%,100%,100%);fill-opacity:1;" d="M 1918 0.0273438 L 0 0.0273438 L 0 1078.972656 L 1918 1078.972656 Z M 572.363281 485.273438 C 552.863281 466.089844 527.128906 456.5 495.164062 456.5 C 478.542969 456.5 463.195312 459.21875 449.132812 464.652344 C 435.066406 469.765625 423.078125 477.277344 413.167969 487.1875 L 413.167969 362.515625 L 338.367188 362.515625 L 338.367188 718.324219 L 413.167969 718.324219 L 413.167969 590.769531 C 413.167969 567.75 418.761719 550.488281 429.949219 538.980469 C 441.140625 527.152344 456.164062 521.238281 475.023438 521.238281 C 491.96875 521.238281 504.914062 526.351562 513.863281 536.582031 C 522.816406 546.492188 527.289062 561.675781 527.289062 582.136719 L 527.289062 718.324219 L 602.089844 718.324219 L 602.089844 570.628906 C 602.089844 532.90625 592.183594 504.453125 572.363281 485.273438 Z M 690.925781 705.375 C 712.664062 716.566406 737.117188 722.160156 764.289062 722.160156 C 791.460938 722.160156 815.753906 716.566406 837.171875 705.375 C 858.589844 693.867188 875.371094 678.042969 887.519531 657.902344 C 899.664062 637.761719 905.738281 614.90625 905.738281 589.332031 C 905.738281 563.757812 899.664062 540.894531 887.519531 520.75 C 875.371094 500.605469 858.589844 484.941406 837.171875 473.757812 C 815.753906 462.246094 791.457031 456.492188 764.289062 456.492188 C 737.121094 456.492188 712.664062 462.25 690.925781 473.757812 C 669.507812 484.953125 652.726562 500.621094 640.578125 520.757812 C 628.433594 540.894531 622.359375 563.753906 622.359375 589.339844 C 622.359375 614.914062 628.433594 637.769531 640.578125 657.910156 C 652.726562 678.050781 669.507812 693.871094 690.925781 705.375 Z M 811.28125 641.597656 C 799.132812 654.382812 783.46875 660.777344 764.289062 660.777344 C 745.109375 660.777344 729.285156 654.382812 716.820312 641.59375 C 704.351562 628.488281 698.117188 611.066406 698.117188 589.328125 C 698.117188 567.589844 704.351562 550.324219 716.820312 537.539062 C 729.285156 524.429688 745.109375 517.875 764.289062 517.875 C 783.46875 517.875 799.132812 524.429688 811.28125 537.539062 C 823.75 550.324219 829.980469 567.585938 829.980469 589.328125 C 829.980469 611.066406 823.75 628.488281 811.28125 641.597656 Z M 1254.949219 456.5 C 1287.238281 456.5 1312.8125 466.089844 1331.675781 485.273438 C 1350.855469 504.136719 1360.445312 532.585938 1360.445312 570.628906 L 1360.445312 718.324219 L 1285.636719 718.324219 L 1285.636719 582.136719 C 1285.636719 561.675781 1281.324219 546.492188 1272.691406 536.582031 C 1264.378906 526.351562 1252.390625 521.238281 1236.730469 521.238281 C 1219.144531 521.238281 1205.238281 526.992188 1195.011719 538.5 C 1184.78125 549.691406 1179.667969 566.472656 1179.667969 588.851562 L 1179.667969 718.324219 L 1104.867188 718.324219 L 1104.867188 582.136719 C 1104.867188 541.542969 1088.5625 521.246094 1055.957031 521.246094 C 1038.695312 521.246094 1024.949219 527 1014.71875 538.507812 C 1004.492188 549.695312 999.375 566.480469 999.375 588.859375 L 999.375 718.332031 L 924.574219 718.332031 L 924.574219 460.335938 L 996.019531 460.335938 L 996.019531 490.070312 C 1005.609375 479.203125 1017.277344 470.890625 1031.023438 465.132812 C 1045.089844 459.378906 1060.433594 456.5 1077.054688 456.5 C 1095.277344 456.5 1111.738281 460.175781 1126.445312 467.53125 C 1141.148438 474.5625 1152.976562 484.953125 1161.925781 498.699219 C 1172.476562 485.269531 1185.742188 474.878906 1201.726562 467.53125 C 1218.027344 460.175781 1235.769531 456.5 1254.949219 456.5 Z M 1650.382812 610.425781 C 1651.351562 597.957031 1651.832031 591.242188 1651.828125 590.28125 C 1651.828125 563.425781 1645.910156 539.929688 1634.082031 519.789062 C 1622.582031 499.328125 1606.601562 483.664062 1586.140625 472.796875 C 1565.679688 461.925781 1542.820312 456.492188 1517.5625 456.496094 C 1491.671875 456.496094 1468.175781 462.25 1447.078125 473.757812 C 1426.300781 484.957031 1409.835938 500.78125 1397.691406 521.238281 C 1385.863281 541.375 1379.949219 564.074219 1379.949219 589.332031 C 1379.949219 614.90625 1386.023438 637.761719 1398.171875 657.902344 C 1410.316406 678.042969 1427.578125 693.867188 1449.957031 705.375 C 1472.332031 716.566406 1498.066406 722.160156 1527.15625 722.160156 C 1573.820312 722.160156 1609.304688 708.253906 1633.605469 680.441406 L 1593.8125 637.285156 C 1584.847656 645.914062 1575.09375 652.308594 1564.550781 656.464844 C 1554.324219 660.300781 1542.5 662.21875 1529.070312 662.21875 C 1509.574219 662.21875 1493.269531 657.582031 1480.164062 648.3125 C 1467.054688 639.042969 1458.746094 626.414062 1455.230469 610.429688 Z M 1475.371094 527.464844 C 1486.878906 517.875 1501.101562 513.078125 1518.042969 513.078125 C 1534.667969 513.078125 1548.734375 518.035156 1560.246094 527.945312 C 1571.75 537.535156 1578.78125 550.484375 1581.34375 566.789062 L 1454.269531 566.789062 C 1456.828125 550.167969 1463.859375 537.0625 1475.371094 527.472656 Z M 1475.371094 527.464844 "/>
</g>
</svg>
