<svg width="12474" height="7017" viewBox="0 0 12474 7017" fill="none" xmlns="http://www.w3.org/2000/svg">
<path fill-rule="evenodd" clip-rule="evenodd" d="M12474 0H0V7016.63H12474V0ZM3722.45 3155.66C3595.63 3030.92 3428.27 2968.55 3220.37 2968.55C3112.26 2968.55 3012.47 2986.22 2920.99 3021.57C2829.52 3054.83 2751.55 3103.69 2687.1 3168.14V2357.33H2200.62V4671.25H2687.1V3841.73C2687.1 3692.04 2723.49 3579.78 2796.25 3504.93C2869.02 3428.01 2966.73 3389.55 3089.39 3389.55C3199.58 3389.55 3283.78 3422.81 3341.99 3489.34C3400.2 3553.79 3429.31 3652.54 3429.31 3785.6V4671.25H3915.79V3710.75C3915.79 3465.43 3851.34 3280.4 3722.45 3155.66ZM4493.54 4587.05C4634.92 4659.82 4793.96 4696.2 4970.67 4696.2C5147.39 4696.2 5305.39 4659.82 5444.69 4587.05C5583.98 4512.21 5693.13 4409.3 5772.13 4278.32C5851.13 4147.34 5890.63 3998.7 5890.63 3832.38C5890.63 3666.06 5851.13 3517.41 5772.13 3386.43C5693.13 3255.45 5583.98 3153.58 5444.69 3080.82C5305.39 3005.97 5147.39 2968.55 4970.67 2968.55C4793.96 2968.55 4634.92 3005.97 4493.54 3080.82C4354.25 3153.58 4245.1 3255.45 4166.1 3386.43C4087.1 3517.41 4047.6 3666.06 4047.6 3832.38C4047.6 3998.7 4087.1 4147.34 4166.1 4278.32C4245.1 4409.3 4354.25 4512.21 4493.54 4587.05ZM5276.29 4172.29C5197.29 4255.45 5095.42 4297.03 4970.67 4297.03C4845.94 4297.03 4743.02 4255.45 4661.94 4172.29C4580.86 4087.05 4540.32 3973.75 4540.32 3832.38C4540.32 3691 4580.86 3578.74 4661.94 3495.58C4743.02 3410.34 4845.94 3367.72 4970.67 3367.72C5095.42 3367.72 5197.29 3410.34 5276.29 3495.58C5357.37 3578.74 5397.91 3691 5397.91 3832.38C5397.91 3973.75 5357.37 4087.05 5276.29 4172.29ZM8161.75 2968.55C8371.73 2968.55 8538.05 3030.92 8660.71 3155.66C8785.45 3278.32 8847.82 3463.35 8847.82 3710.75V4671.25H8361.34V3785.6C8361.34 3652.54 8333.27 3553.79 8277.14 3489.34C8223.08 3422.81 8145.12 3389.55 8043.25 3389.55C7928.9 3389.55 7838.47 3426.97 7771.94 3501.82C7705.41 3574.58 7672.15 3683.73 7672.15 3829.26V4671.25H7185.66V3785.6C7185.66 3521.57 7079.63 3389.55 6867.58 3389.55C6755.31 3389.55 6665.91 3426.97 6599.38 3501.82C6532.86 3574.58 6499.59 3683.73 6499.59 3829.26V4671.25H6013.11V2993.5H6477.76V3186.85C6540.13 3116.16 6616.02 3062.11 6705.41 3024.68C6796.89 2987.26 6896.68 2968.55 7004.79 2968.55C7123.29 2968.55 7230.36 2992.46 7326 3040.28C7421.63 3086.01 7498.55 3153.58 7556.76 3242.98C7625.37 3155.66 7711.65 3088.09 7815.6 3040.28C7921.63 2992.46 8037.01 2968.55 8161.75 2968.55ZM10733.5 3969.59C10739.8 3888.51 10742.9 3844.85 10742.9 3838.61C10742.9 3663.98 10704.4 3511.17 10627.5 3380.19C10552.7 3247.14 10448.7 3145.27 10315.7 3074.58C10182.6 3003.89 10034 2968.55 9869.72 2968.55C9701.32 2968.55 9548.51 3005.97 9411.3 3080.82C9276.16 3153.58 9169.09 3256.49 9090.09 3389.55C9013.17 3520.53 8974.71 3668.14 8974.71 3832.38C8974.71 3998.7 9014.21 4147.34 9093.21 4278.32C9172.21 4409.3 9284.48 4512.21 9430.01 4587.05C9575.54 4659.82 9742.9 4696.2 9932.09 4696.2C10235.6 4696.2 10466.4 4605.76 10624.4 4424.89L10365.6 4144.23C10307.3 4200.36 10243.9 4241.94 10175.3 4268.97C10108.8 4293.91 10031.9 4306.39 9944.56 4306.39C9817.74 4306.39 9711.71 4276.24 9626.47 4215.95C9541.23 4155.66 9487.18 4073.54 9464.31 3969.59H10733.5ZM9595.29 3430.09C9670.13 3367.72 9762.65 3336.53 9872.83 3336.53C9980.94 3336.53 10072.4 3368.76 10147.3 3433.21C10222.1 3495.58 10267.8 3579.78 10284.5 3685.81H9458.07C9474.71 3577.7 9520.44 3492.46 9595.29 3430.09Z" fill="white"/>
</svg>
