<svg id="Layer_1" data-name="Layer 1" xmlns="http://www.w3.org/2000/svg" viewBox="0 0 12474 7016.63"><defs><style>.cls-1{fill:#fff;fill-rule:evenodd;}</style></defs><path class="cls-1" d="M12474,0H0V7016.63H12474ZM3722.45,3155.66q-190.23-187.11-502.08-187.11-162.16,0-299.38,53-137.2,49.89-233.89,146.57V2357.33H2200.62V4671.25H2687.1V3841.73q0-224.54,109.15-336.8,109.15-115.38,293.14-115.38,165.29,0,252.6,99.79,87.32,96.67,87.32,296.26v885.65h486.48v-960.5Q3915.79,3342.77,3722.45,3155.66Zm771.09,1431.39q212.07,109.15,477.13,109.15t474-109.15q208.94-112.26,327.44-308.73t118.5-445.94q0-249.48-118.5-446t-327.44-305.61q-208.95-112.28-474-112.27t-477.13,112.27Q4284.6,3190,4166.1,3386.43t-118.5,446q0,249.48,118.5,445.94T4493.54,4587.05Zm782.75-414.76Q5157.79,4297,4970.67,4297t-308.73-124.74q-121.62-127.86-121.62-339.91t121.62-336.8q121.62-127.86,308.73-127.86t305.62,127.86q121.62,124.74,121.62,336.8T5276.29,4172.29ZM8161.75,2968.55q315,0,499,187.11,187.11,184,187.11,555.09v960.5H8361.34V3785.6q0-199.59-84.2-296.26-81.09-99.8-233.89-99.79-171.53,0-271.31,112.27-99.79,109.14-99.79,327.44v842H7185.66V3785.6q0-396-318.08-396-168.4,0-268.2,112.27-99.78,109.14-99.79,327.44v842H6013.11V2993.5h464.65v193.35q93.56-106,227.65-162.17,137.22-56.13,299.38-56.13,177.75,0,321.21,71.73,143.44,68.59,230.76,202.7,102.91-131,258.84-202.7Q7974.65,2968.55,8161.75,2968.55Zm2571.75,1001q9.45-121.62,9.4-131,0-261.95-115.4-458.42-112.2-199.58-311.8-305.61t-446-106q-252.6,0-458.42,112.27Q9208.59,3190,9090.09,3389.55,8974.71,3586,8974.71,3832.38q0,249.48,118.5,445.94T9430,4587.05q218.3,109.15,502.08,109.15,455.26,0,692.31-271.31l-258.8-280.66q-87.45,84.19-190.3,124.74-99.75,37.41-230.74,37.42-190.23,0-318.09-90.44t-162.16-246.36Zm-1138.21-539.5q112.26-93.56,277.54-93.56,162.17,0,274.47,96.68,112.2,93.55,137.2,252.6H9458.07Q9483,3523.64,9595.29,3430.09Z"/></svg>