<svg width="19" height="22" viewBox="0 0 19 22" fill="none" xmlns="http://www.w3.org/2000/svg">
<path d="M11.12 16.023L6.92102 13.733C6.37282 14.319 5.66101 14.7266 4.8781 14.9028C4.09518 15.0791 3.27737 15.0157 2.53094 14.721C1.78452 14.4263 1.14398 13.9139 0.692591 13.2504C0.241198 12.5869 -0.000183105 11.803 -0.000183105 11.0005C-0.000183105 10.198 0.241198 9.41402 0.692591 8.75051C1.14398 8.08701 1.78452 7.57461 2.53094 7.27992C3.27737 6.98523 4.09518 6.92187 4.8781 7.09807C5.66101 7.27428 6.37282 7.6819 6.92102 8.26796L11.121 5.97796C10.8826 5.03403 10.9966 4.03555 11.4417 3.16966C11.8867 2.30378 12.6323 1.62994 13.5387 1.27446C14.445 0.918981 15.4499 0.906264 16.365 1.23869C17.2801 1.57112 18.0425 2.22588 18.5093 3.08022C18.9762 3.93457 19.1154 4.92985 18.9009 5.8795C18.6864 6.82916 18.133 7.668 17.3443 8.23877C16.5555 8.80954 15.5857 9.07307 14.6166 8.97995C13.6475 8.88684 12.7456 8.44347 12.08 7.73296L7.88002 10.023C8.04123 10.6643 8.04123 11.3356 7.88002 11.977L12.079 14.267C12.7446 13.5564 13.6465 13.1131 14.6156 13.02C15.5847 12.9268 16.5545 13.1904 17.3433 13.7611C18.132 14.3319 18.6854 15.1708 18.8999 16.1204C19.1144 17.0701 18.9752 18.0654 18.5083 18.9197C18.0415 19.774 17.2791 20.4288 16.364 20.7612C15.4489 21.0937 14.444 21.0809 13.5377 20.7255C12.6313 20.37 11.8857 19.6961 11.4407 18.8303C10.9956 17.9644 10.8816 16.9659 11.12 16.022V16.023ZM4.00002 13C4.53046 13 5.03916 12.7892 5.41424 12.4142C5.78931 12.0391 6.00002 11.5304 6.00002 11C6.00002 10.4695 5.78931 9.96082 5.41424 9.58575C5.03916 9.21067 4.53046 8.99996 4.00002 8.99996C3.46959 8.99996 2.96088 9.21067 2.58581 9.58575C2.21074 9.96082 2.00002 10.4695 2.00002 11C2.00002 11.5304 2.21074 12.0391 2.58581 12.4142C2.96088 12.7892 3.46959 13 4.00002 13ZM15 6.99996C15.5305 6.99996 16.0392 6.78925 16.4142 6.41417C16.7893 6.0391 17 5.53039 17 4.99996C17 4.46953 16.7893 3.96082 16.4142 3.58575C16.0392 3.21067 15.5305 2.99996 15 2.99996C14.4696 2.99996 13.9609 3.21067 13.5858 3.58575C13.2107 3.96082 13 4.46953 13 4.99996C13 5.53039 13.2107 6.0391 13.5858 6.41417C13.9609 6.78925 14.4696 6.99996 15 6.99996ZM15 19C15.5305 19 16.0392 18.7892 16.4142 18.4142C16.7893 18.0391 17 17.5304 17 17C17 16.4695 16.7893 15.9608 16.4142 15.5857C16.0392 15.2107 15.5305 15 15 15C14.4696 15 13.9609 15.2107 13.5858 15.5857C13.2107 15.9608 13 16.4695 13 17C13 17.5304 13.2107 18.0391 13.5858 18.4142C13.9609 18.7892 14.4696 19 15 19Z" fill="black"/>
</svg>
